<svg width="51" height="53" viewBox="0 0 51 53" fill="none" xmlns="http://www.w3.org/2000/svg">
<path fill-rule="evenodd" clip-rule="evenodd" d="M34.6514 34.4795C33.8598 34.6027 33.0485 34.6666 32.2224 34.6666C23.5699 34.6666 16.5557 27.6524 16.5557 19C16.5557 18.7648 16.5609 18.5309 16.5712 18.2983C17.3628 18.175 18.174 18.1111 19.0002 18.1111C27.6526 18.1111 34.6668 25.1253 34.6668 33.7778C34.6668 34.0129 34.6616 34.2469 34.6514 34.4795ZM37.6666 33.6948C37.622 23.4236 29.2818 15.1111 19.0002 15.1111C18.3299 15.1111 17.6679 15.1464 17.0159 15.2153C18.7088 8.39129 24.8749 3.33331 32.2224 3.33331C40.8748 3.33331 47.889 10.3475 47.889 19C47.889 25.7381 43.6353 31.4827 37.6666 33.6948ZM37.4002 36.9392C45.1906 34.6946 50.889 27.5128 50.889 19C50.889 8.69066 42.5317 0.333313 32.2224 0.333313C22.9906 0.333313 15.3241 7.03489 13.8223 15.8386C6.0319 18.0831 0.333496 25.265 0.333496 33.7778C0.333496 44.0871 8.69085 52.4444 19.0002 52.4444C28.2319 52.4444 35.8984 45.7429 37.4002 36.9392ZM34.2066 37.5624C33.5546 37.6313 32.8926 37.6666 32.2224 37.6666C21.9407 37.6666 13.6006 29.3541 13.5559 19.0829C7.58727 21.2951 3.3335 27.0397 3.3335 33.7778C3.3335 42.4302 10.3477 49.4444 19.0002 49.4444C26.3477 49.4444 32.5138 44.3864 34.2066 37.5624Z" fill="#A6A6A6"/>
</svg>
